<?xml version="1.0" encoding="utf-8"?>
<!-- Svg Vector Icons : http://www.onlinewebfonts.com/icon -->
<!DOCTYPE svg PUBLIC "-//W3C//DTD SVG 1.1//EN" "http://www.w3.org/Graphics/SVG/1.1/DTD/svg11.dtd">
<svg version="1.1" xmlns="http://www.w3.org/2000/svg" xmlns:xlink="http://www.w3.org/1999/xlink" x="0px" y="0px" viewBox="0 0 256 256" enable-background="new 0 0 256 256" xml:space="preserve">
<metadata> Svg Vector Icons : http://www.onlinewebfonts.com/icon </metadata>
<g><g><g><path fill="#000000" d="M223.8,13.6C217.6,16,167.9,36,113.4,57.9C5,101.4,11.1,98.7,10.1,103.8c-0.5,2.6,0.5,6.1,2.3,8.1c0.9,1,14.7,7.3,45.4,20.5c24.3,10.5,44.4,19.4,44.8,19.8c0.4,0.3,9.3,20.6,19.8,45c10.5,24.4,19.7,45.1,20.2,46c1.3,1.8,5,3.9,7.1,3.9c2,0,4.2-1.2,6.2-3.3c1.1-1.2,14.3-33.6,45.8-112.3c48.8-121.9,46-114.3,42.7-118.7c-1.8-2.4-4.8-3.9-7.5-3.9C235.9,9,230,11,223.8,13.6z M153.4,88.8l-45.3,45.3l-32.4-14c-17.8-7.7-32.2-14.2-31.9-14.4c0.2-0.2,32.3-13.1,71.3-28.8c39-15.6,73.6-29.5,77-30.9c3.3-1.4,6.2-2.5,6.3-2.5C198.6,43.5,178.3,63.9,153.4,88.8z M211.1,58.1c-0.2,0.7-9.1,22.7-19.6,48.9s-24.2,60.2-30.4,75.8c-6.2,15.5-11.5,28.4-11.6,28.7c-0.2,0.3-6.7-14.1-14.4-31.9l-14-32.4l45.1-45.1c24.8-24.8,45.3-45.2,45.3-45.2C211.6,56.8,211.4,57.4,211.1,58.1z"/></g></g></g>
</svg>